<svg version="1.1" id="Layer_1" xmlns="http://www.w3.org/2000/svg" xmlns:xlink="http://www.w3.org/1999/xlink" x="0px" y="0px"
	 width="100%" viewBox="0 0 225 225" enable-background="new 0 0 225 225" xml:space="preserve">
<path fill="#FFFEFE" opacity="1.000000" stroke="none" 
	d="
M150.000000,226.000000 
	C100.000000,226.000000 50.500008,226.000000 1.000007,226.000000 
	C1.000004,151.000000 1.000004,76.000015 1.000002,1.000017 
	C75.999992,1.000011 150.999985,1.000011 225.999969,1.000006 
	C225.999985,75.999985 225.999985,150.999969 226.000000,225.999969 
	C200.833328,226.000000 175.666672,226.000000 150.000000,226.000000 
M76.444611,204.088058 
	C78.739059,204.474533 81.025429,204.919327 83.329170,205.238739 
	C118.524834,210.118652 153.541412,186.551865 162.357086,152.121719 
	C167.483749,132.099228 165.092133,113.188087 154.363586,95.396210 
	C153.505997,93.974007 152.409851,91.467072 153.026810,90.585388 
	C156.794373,85.201172 161.025131,80.141068 164.183334,76.136948 
	C168.192505,77.060532 172.756531,79.002029 173.401718,78.109802 
	C176.557541,73.745529 170.117462,73.181007 169.234863,69.779716 
	C169.883316,68.881401 170.618973,67.799194 171.417908,66.765892 
	C176.205078,60.574429 181.196365,54.529732 185.743835,48.167519 
	C189.409302,43.039318 188.426620,37.507454 183.823318,33.999622 
	C179.279800,30.537378 173.615219,31.167677 169.555939,35.702499 
	C167.892822,37.560455 166.437668,39.604115 164.880005,41.556995 
	C160.870773,46.583492 156.857147,51.606468 153.606491,55.677509 
	C149.885071,54.719879 145.572708,52.683399 144.839081,53.578873 
	C141.317856,57.876888 147.997177,58.537296 148.631683,62.102165 
	C145.147614,66.555412 141.491318,71.228806 137.815842,75.926712 
	C136.660110,75.232918 135.913956,74.858696 135.247910,74.374344 
	C119.871170,63.192200 102.721329,58.928165 83.852264,60.820435 
	C46.330170,64.583313 17.328163,99.545433 19.594723,137.108551 
	C21.404011,167.093445 43.198910,196.447662 76.444611,204.088058 
z"/>
<path fill="#D90335" opacity="1.000000" stroke="none" 
	d="
M76.041260,203.983414 
	C43.198910,196.447662 21.404011,167.093445 19.594723,137.108551 
	C17.328163,99.545433 46.330170,64.583313 83.852264,60.820435 
	C102.721329,58.928165 119.871170,63.192200 135.247910,74.374344 
	C135.913956,74.858696 136.660110,75.232918 137.815842,75.926712 
	C141.491318,71.228806 145.147614,66.555412 148.631683,62.102165 
	C147.997177,58.537296 141.317856,57.876888 144.839081,53.578873 
	C145.572708,52.683399 149.885071,54.719879 153.606491,55.677509 
	C156.857147,51.606468 160.870773,46.583492 164.880005,41.556995 
	C166.437668,39.604115 167.892822,37.560455 169.555939,35.702499 
	C173.615219,31.167677 179.279800,30.537378 183.823318,33.999622 
	C188.426620,37.507454 189.409302,43.039318 185.743835,48.167519 
	C181.196365,54.529732 176.205078,60.574429 171.417908,66.765892 
	C170.618973,67.799194 169.883316,68.881401 169.234863,69.779716 
	C170.117462,73.181007 176.557541,73.745529 173.401718,78.109802 
	C172.756531,79.002029 168.192505,77.060532 164.183334,76.136948 
	C161.025131,80.141068 156.794373,85.201172 153.026810,90.585388 
	C152.409851,91.467072 153.505997,93.974007 154.363586,95.396210 
	C165.092133,113.188087 167.483749,132.099228 162.357086,152.121719 
	C153.541412,186.551865 118.524834,210.118652 83.329170,205.238739 
	C81.025429,204.919327 78.739059,204.474533 76.041260,203.983414 
M72.499847,147.560638 
	C87.662277,147.559204 102.825233,147.635132 117.986961,147.531219 
	C129.551544,147.451981 137.203720,140.187790 137.172989,129.599197 
	C137.142532,119.108864 129.390625,111.968788 117.783356,111.941292 
	C95.123138,111.887611 72.462601,111.885208 49.802391,111.942490 
	C38.418266,111.971268 30.429516,119.456085 30.519463,129.797836 
	C30.607668,139.939392 38.478119,147.362473 49.506321,147.534668 
	C56.835842,147.649124 64.168556,147.558929 72.499847,147.560638 
z"/>
<path fill="#FEF6F8" opacity="1.000000" stroke="none" 
	d="
M71.999847,147.560486 
	C64.168556,147.558929 56.835842,147.649124 49.506321,147.534668 
	C38.478119,147.362473 30.607668,139.939392 30.519463,129.797836 
	C30.429516,119.456085 38.418266,111.971268 49.802391,111.942490 
	C72.462601,111.885208 95.123138,111.887611 117.783356,111.941292 
	C129.390625,111.968788 137.142532,119.108864 137.172989,129.599197 
	C137.203720,140.187790 129.551544,147.451981 117.986961,147.531219 
	C102.825233,147.635132 87.662277,147.559204 71.999847,147.560486 
M117.427788,118.255722 
	C109.407738,123.185951 101.318741,128.011597 93.462776,133.190720 
	C92.571381,133.778397 92.273033,137.268555 92.959167,137.806580 
	C94.182983,138.766174 96.856110,139.325653 98.071579,138.608688 
	C105.075539,134.477310 111.939224,130.080261 118.620789,125.442383 
	C121.773659,123.253891 121.748962,120.528206 117.427788,118.255722 
M50.371696,118.728378 
	C48.463120,118.943520 46.554546,119.158661 44.645969,119.373802 
	C45.276005,121.349487 45.328724,123.920593 46.640839,125.192802 
	C51.157928,129.572495 56.123260,133.488800 60.900955,137.601257 
	C62.958408,139.372253 65.193359,140.671997 67.353935,138.079849 
	C69.502876,135.501633 67.800491,133.484406 65.771973,131.750214 
	C60.854477,127.546211 55.927792,123.352943 50.371696,118.728378 
z"/>
<path fill="#DB1241" opacity="1.000000" stroke="none" 
	d="
M117.782745,118.339088 
	C121.748962,120.528206 121.773659,123.253891 118.620789,125.442383 
	C111.939224,130.080261 105.075539,134.477310 98.071579,138.608688 
	C96.856110,139.325653 94.182983,138.766174 92.959167,137.806580 
	C92.273033,137.268555 92.571381,133.778397 93.462776,133.190720 
	C101.318741,128.011597 109.407738,123.185951 117.782745,118.339088 
z"/>
<path fill="#DB1341" opacity="1.000000" stroke="none" 
	d="
M50.688248,118.941864 
	C55.927792,123.352943 60.854477,127.546211 65.771973,131.750214 
	C67.800491,133.484406 69.502876,135.501633 67.353935,138.079849 
	C65.193359,140.671997 62.958408,139.372253 60.900955,137.601257 
	C56.123260,133.488800 51.157928,129.572495 46.640839,125.192802 
	C45.328724,123.920593 45.276005,121.349487 44.645969,119.373802 
	C46.554546,119.158661 48.463120,118.943520 50.688248,118.941864 
z"/>
</svg>